<svg width="24" height="24" viewBox="0 0 24 24" fill="none" xmlns="http://www.w3.org/2000/svg">
<path d="M4.125 8.75C3.57272 8.75 3.125 9.19772 3.125 9.75C3.125 10.3023 3.57272 10.75 4.125 10.75V8.75ZM19.875 10.75C20.4273 10.75 20.875 10.3023 20.875 9.75C20.875 9.19772 20.4273 8.75 19.875 8.75V10.75ZM4.21948 13.8124C3.66719 13.8124 3.21948 14.2601 3.21948 14.8124C3.21948 15.3647 3.66719 15.8124 4.21948 15.8124V13.8124ZM19.9695 15.8124C20.5218 15.8124 20.9695 15.3647 20.9695 14.8124C20.9695 14.2601 20.5218 13.8124 19.9695 13.8124V15.8124ZM20 12C20 16.4183 16.4183 20 12 20V22C17.5228 22 22 17.5228 22 12H20ZM12 20C7.58172 20 4 16.4183 4 12H2C2 17.5228 6.47715 22 12 22V20ZM4 12C4 7.58172 7.58172 4 12 4V2C6.47715 2 2 6.47715 2 12H4ZM12 4C16.4183 4 20 7.58172 20 12H22C22 6.47715 17.5228 2 12 2V4ZM12 20C11.7872 20 11.5057 19.9056 11.1624 19.5738C10.8143 19.2373 10.4552 18.7021 10.1319 17.9631C9.48665 16.4882 9.0625 14.3807 9.0625 12H7.0625C7.0625 14.5898 7.51979 16.9823 8.29961 18.7648C8.68887 19.6545 9.1782 20.4373 9.77228 21.0117C10.3712 21.5907 11.1255 22 12 22V20ZM9.0625 12C9.0625 9.61928 9.48665 7.51177 10.1319 6.03686C10.4552 5.29792 10.8143 4.76272 11.1624 4.42621C11.5057 4.09436 11.7872 4 12 4V2C11.1255 2 10.3712 2.40931 9.77228 2.98832C9.1782 3.56266 8.68887 4.34548 8.29961 5.23522C7.51979 7.01767 7.0625 9.41015 7.0625 12H9.0625ZM12 22C12.8745 22 13.6288 21.5907 14.2277 21.0117C14.8218 20.4373 15.3111 19.6545 15.7004 18.7648C16.4802 16.9823 16.9375 14.5898 16.9375 12H14.9375C14.9375 14.3807 14.5133 16.4882 13.8681 17.9631C13.5448 18.7021 13.1857 19.2373 12.8376 19.5738C12.4943 19.9056 12.2128 20 12 20V22ZM16.9375 12C16.9375 9.41015 16.4802 7.01767 15.7004 5.23522C15.3111 4.34548 14.8218 3.56266 14.2277 2.98832C13.6288 2.40931 12.8745 2 12 2V4C12.2128 4 12.4943 4.09436 12.8376 4.42621C13.1857 4.76272 13.5448 5.29792 13.8681 6.03686C14.5133 7.51177 14.9375 9.61928 14.9375 12H16.9375ZM4.125 10.75H19.875V8.75H4.125V10.75ZM4.21948 15.8124H19.9695V13.8124H4.21948V15.8124Z" fill="#c54194"/>
</svg>
