<svg width="24" height="24" viewBox="0 0 24 24" fill="none" xmlns="http://www.w3.org/2000/svg">
<path d="M18.4475 18.2539L17.939 17.3929L18.4475 18.2539ZM18.939 17.3929H17.939H18.939ZM10.9657 21.4036L10.4292 22.2475L10.9657 21.4036ZM13.0555 21.4379L13.564 22.299L13.0555 21.4379ZM1.90419 8.13686L1.39226 7.27784L1.90419 8.13686ZM1.90419 8.99589L1.39226 9.85492L1.90419 8.99589ZM12.512 14.7074L13.024 15.5664L12.512 14.7074ZM11.4882 14.7074L12.0001 13.8483L11.4882 14.7074ZM22.096 8.13686L22.6079 7.27784L22.096 8.13686ZM22.096 8.99589L21.5841 8.13686L22.096 8.99589ZM6.01768 18.2583L6.55413 17.4144L6.01768 18.2583ZM12.512 2.4254L12.0001 3.28442L12.512 2.4254ZM11.4882 2.4254L12.0001 3.28442L11.4882 2.4254ZM23.2001 8.54973C23.2001 7.99745 22.7524 7.54973 22.2001 7.54973C21.6478 7.54973 21.2001 7.99745 21.2001 8.54973H23.2001ZM21.2001 13.9497C21.2001 14.502 21.6478 14.9497 22.2001 14.9497C22.7524 14.9497 23.2001 14.502 23.2001 13.9497H21.2001ZM12.0001 3.28442L21.5841 8.99589L22.6079 7.27784L13.024 1.56637L12.0001 3.28442ZM21.5841 8.13686L12.0001 13.8483L13.024 15.5664L22.6079 9.85492L21.5841 8.13686ZM2.41612 8.99589L12.0001 3.28442L10.9762 1.56637L1.39226 7.27784L2.41612 8.99589ZM12.0001 13.8483L6.06606 10.312L5.0422 12.0301L10.9762 15.5664L12.0001 13.8483ZM6.06606 10.312L2.41612 8.13686L1.39226 9.85492L5.0422 12.0301L6.06606 10.312ZM4.55413 11.171V17.4144H6.55413V11.171H4.55413ZM5.48123 19.1023L10.4292 22.2475L11.5021 20.5597L6.55413 17.4144L5.48123 19.1023ZM13.564 22.299L18.956 19.115L17.939 17.3929L12.5471 20.5768L13.564 22.299ZM19.939 17.3929L19.939 11.171H17.939L17.939 17.3929H19.939ZM18.956 19.115C19.5652 18.7553 19.939 18.1004 19.939 17.3929H17.939L18.956 19.115ZM10.4292 22.2475C11.3814 22.8527 12.5925 22.8726 13.564 22.299L12.5471 20.5768C12.2232 20.768 11.8195 20.7614 11.5021 20.5597L10.4292 22.2475ZM1.39226 7.27784C0.416118 7.85956 0.416123 9.2732 1.39226 9.85492L2.41612 8.13686C2.7415 8.33077 2.7415 8.80198 2.41612 8.99589L1.39226 7.27784ZM12.0001 13.8483L12.0001 13.8483L10.9762 15.5664C11.6071 15.9423 12.3931 15.9423 13.024 15.5664L12.0001 13.8483ZM21.5841 8.99589C21.2587 8.80199 21.2587 8.33077 21.5841 8.13686L22.6079 9.85492C23.5841 9.2732 23.5841 7.85956 22.6079 7.27784L21.5841 8.99589ZM4.55413 17.4144C4.55413 18.0986 4.90384 18.7353 5.48123 19.1023L6.55413 17.4144V17.4144H4.55413ZM13.024 1.56637C12.3931 1.19044 11.6071 1.19044 10.9762 1.56637L12.0001 3.28442L12.0001 3.28442L13.024 1.56637ZM21.2001 8.54973V13.9497H23.2001V8.54973H21.2001Z" fill="#3db5ff"/>
</svg>
