<svg width="25" height="24" viewBox="0 0 25 24" fill="none" xmlns="http://www.w3.org/2000/svg">
<path d="M20.331 12.6977C20.5157 12.1772 20.2435 11.6055 19.723 11.4208C19.2025 11.2362 18.6308 11.5084 18.4462 12.0289L20.331 12.6977ZM17.3551 18.0939L18.2976 18.4283L18.2976 18.4283L17.3551 18.0939ZM15.9837 19.2813L16.1798 20.2619L16.1798 20.2619L15.9837 19.2813ZM4.01245 21.6756L3.02832 21.4981C2.96958 21.8239 3.07583 22.1576 3.31209 22.3894C3.54835 22.6212 3.884 22.7211 4.20857 22.6562L4.01245 21.6756ZM6.19707 9.56085L7.1812 9.73832L7.1812 9.73832L6.19707 9.56085ZM7.45741 8.13299L7.75568 9.08747L7.75568 9.08747L7.45741 8.13299ZM13.623 7.25393C14.1502 7.08919 14.444 6.52832 14.2792 6.00117C14.1145 5.47403 13.5536 5.18023 13.0265 5.34497L13.623 7.25393ZM3.52191 20.7519C3.13139 21.1424 3.13139 21.7756 3.52191 22.1661C3.91243 22.5566 4.5456 22.5566 4.93612 22.1661L3.52191 20.7519ZM10.1337 16.9686C10.5242 16.578 10.5242 15.9449 10.1337 15.5543C9.74317 15.1638 9.11 15.1638 8.71948 15.5543L10.1337 16.9686ZM22.8536 8.03197L23.5607 7.32486L23.5607 7.32486L22.8536 8.03197ZM22.8536 9.76449L22.1465 9.05738L22.1465 9.05738L22.8536 9.76449ZM15.9235 2.8344L15.2164 2.1273L15.2164 2.1273L15.9235 2.8344ZM17.6561 2.8344L16.949 3.54151L16.949 3.54151L17.6561 2.8344ZM13.7579 6.73258L14.465 6.02547L14.465 6.02547L13.7579 6.73258ZM13.7579 5.00006L14.465 5.70716L14.465 5.70716L13.7579 5.00006ZM18.9555 11.9301L18.2483 12.6373L18.2483 12.6373L18.9555 11.9301ZM20.688 11.9301L21.3951 12.6373L21.3951 12.6373L20.688 11.9301ZM18.4462 12.0289L16.4127 17.7595L18.2976 18.4283L20.331 12.6977L18.4462 12.0289ZM15.7876 18.3008L3.81633 20.695L4.20857 22.6562L16.1798 20.2619L15.7876 18.3008ZM4.99658 21.853L7.1812 9.73832L5.21295 9.38338L3.02832 21.4981L4.99658 21.853ZM7.75568 9.08747L13.623 7.25393L13.0265 5.34497L7.15913 7.17851L7.75568 9.08747ZM7.1812 9.73832C7.23656 9.43132 7.45793 9.18052 7.75568 9.08747L7.15913 7.17851C6.15044 7.49373 5.40049 8.34337 5.21295 9.38338L7.1812 9.73832ZM16.4127 17.7595C16.3141 18.0374 16.0767 18.2429 15.7876 18.3008L16.1798 20.2619C17.1592 20.066 17.9635 19.3696 18.2976 18.4283L16.4127 17.7595ZM4.93612 22.1661L10.1337 16.9686L8.71948 15.5543L3.52191 20.7519L4.93612 22.1661ZM19.6626 11.223L14.465 6.02547L13.0508 7.43968L18.2483 12.6373L19.6626 11.223ZM14.465 5.70716L16.6306 3.54151L15.2164 2.1273L13.0508 4.29295L14.465 5.70716ZM16.949 3.54151L22.1465 8.73908L23.5607 7.32486L18.3632 2.1273L16.949 3.54151ZM22.1465 9.05738L19.9809 11.223L21.3951 12.6373L23.5607 10.4716L22.1465 9.05738ZM22.1465 8.73908C22.2344 8.82697 22.2344 8.96949 22.1465 9.05738L23.5607 10.4716C24.4297 9.60265 24.4297 8.19381 23.5607 7.32486L22.1465 8.73908ZM16.6306 3.54151C16.7185 3.45361 16.8611 3.45361 16.949 3.54151L18.3632 2.1273C17.4942 1.25835 16.0854 1.25835 15.2164 2.1273L16.6306 3.54151ZM14.465 6.02547C14.3771 5.93757 14.3771 5.79506 14.465 5.70716L13.0508 4.29295C12.1818 5.1619 12.1818 6.57074 13.0508 7.43968L14.465 6.02547ZM18.2483 12.6373C19.1173 13.5062 20.5261 13.5062 21.3951 12.6373L19.9809 11.223C19.893 11.3109 19.7505 11.3109 19.6626 11.223L18.2483 12.6373ZM10.5668 13.0704C11.1331 12.5041 12.0513 12.5041 12.6176 13.0704L14.0319 11.6562C12.6845 10.3088 10.5 10.3088 9.15261 11.6562L10.5668 13.0704ZM12.6176 13.0704C13.184 13.6367 13.184 14.5549 12.6176 15.1212L14.0319 16.5354C15.3792 15.1881 15.3792 13.0035 14.0319 11.6562L12.6176 13.0704ZM12.6176 15.1212C12.0513 15.6875 11.1331 15.6875 10.5668 15.1212L9.15261 16.5354C10.5 17.8828 12.6845 17.8828 14.0319 16.5354L12.6176 15.1212ZM10.5668 15.1212C10.0005 14.5549 10.0005 13.6367 10.5668 13.0704L9.15261 11.6562C7.80524 13.0035 7.80524 15.1881 9.15261 16.5354L10.5668 15.1212Z" fill="#a76dc1"/>
</svg>
